<?xml version="1.0" standalone="no"?><!DOCTYPE svg PUBLIC "-//W3C//DTD SVG 1.1//EN" "http://www.w3.org/Graphics/SVG/1.1/DTD/svg11.dtd"><svg t="1768560063600" class="icon" viewBox="0 0 1024 1024" version="1.1" xmlns="http://www.w3.org/2000/svg" p-id="6644" xmlns:xlink="http://www.w3.org/1999/xlink" width="30" height="30"><path d="M819.202146 163.830173c22.654097 0 40.96778 18.303446 40.96778 40.96778v778.234267c0 22.654097-18.303446 40.96778-40.96778 40.96778H40.967878c-22.654097 0-40.96778-18.303446-40.96778-40.96778V204.797953c0-22.654097 18.303446-40.96778 40.96778-40.96778h778.234268z m-51.204607 767.99744v-675.835291H92.162248v675.835291h675.835291zM983.032318 0c22.654097 0 40.96778 18.303446 40.96778 40.96778V829.438874c0 5.640491-4.606572 10.247063-10.236826 10.247063h-71.67826c-5.630255 0-10.247063-4.606572-10.247063-10.247063V92.16215H194.561224c-5.640491 0-10.247063-4.616809-10.247063-10.247064V10.236827c0-5.630255 4.606572-10.236827 10.247063-10.236827h788.471094zM213.826932 773.115854c-7.667383 0-11.844008-8.906039-6.879147-14.751267l137.859343-164.444382-137.859343-164.444383c-4.954624-5.865702-0.798472-14.761504 6.879147-14.761503h66.396057c5.415281 0 10.48251 2.364707 13.860663 6.428727l133.907929 159.622837a20.482866 20.482866 0 0 1 0 26.329118L294.083652 766.697364c-3.490758 4.053783-8.568224 6.428727-13.860663 6.428727h-66.396057v-0.010237z m215.034779 0c-7.667383 0-11.833772-8.906039-6.879147-14.751267l137.859343-164.444382-137.849106-164.444383c-4.954624-5.865702-0.798472-14.761504 6.879147-14.761503h66.396057c5.415281 0 10.492747 2.364707 13.860664 6.428727l133.918165 159.622837a20.482866 20.482866 0 0 1 0 26.329118L509.118432 766.697364c-3.490758 4.053783-8.557987 6.428727-13.860664 6.428727h-66.396057v-0.010237z m0 0" fill="#2C2C2C" p-id="6645"></path></svg>