<?xml version="1.0" standalone="no"?><!DOCTYPE svg PUBLIC "-//W3C//DTD SVG 1.1//EN" "http://www.w3.org/Graphics/SVG/1.1/DTD/svg11.dtd"><svg t="1768563840650" class="icon" viewBox="0 0 1024 1024" version="1.1" xmlns="http://www.w3.org/2000/svg" p-id="7668" xmlns:xlink="http://www.w3.org/1999/xlink" width="30" height="30"><path d="M53.312 512a458.688 458.688 0 1 1 917.376 0A458.688 458.688 0 0 1 53.312 512zM584.96 301.824a356.16 356.16 0 0 0-39.808-26.688c-12.096-6.336-32-13.888-52.736-3.008-20.48 10.816-25.856 31.232-27.776 44.672-1.92 13.184-1.92 30.208-1.92 48.448v77.184l-57.92-49.6a32 32 0 0 0-41.6 48.64L445.44 512 363.2 582.4a32 32 0 1 0 41.6 48.64l57.92-49.6v77.184c0 18.24 0 35.328 1.92 48.512 1.92 13.44 7.232 33.856 27.776 44.608 20.736 10.88 40.64 3.328 52.736-2.944a356.48 356.48 0 0 0 39.808-26.688l39.424-28.8c10.624-7.744 21.312-15.552 29.056-23.104 8.64-8.576 18.56-21.568 18.56-40.064 0-18.56-9.92-31.552-18.56-40.064-7.68-7.552-18.432-15.36-29.056-23.168L548.992 512l75.392-54.976c10.624-7.744 21.312-15.552 29.056-23.168 8.64-8.512 18.56-21.504 18.56-40 0-18.56-9.92-31.552-18.56-40.064-7.68-7.616-18.432-15.36-29.056-23.168l-39.424-28.8zM526.72 367.36v64.768c0 7.36 0 11.008 2.368 12.16 2.304 1.28 5.248-0.896 11.2-5.248l44.8-32.704 8.32-6.08c3.968-2.944 5.952-4.416 5.952-6.528 0-2.176-1.984-3.648-5.952-6.528l-8.32-6.144-36.096-26.304a3344.064 3344.064 0 0 0-9.344-6.784c-5.44-3.968-8.192-5.952-10.496-4.8-2.368 1.152-2.368 4.544-2.368 11.328v12.864z m0 289.088V591.744c0-7.36 0-11.008 2.368-12.16 2.304-1.216 5.248 0.96 11.2 5.248l44.8 32.704 8.32 6.144c3.968 2.88 5.952 4.352 5.952 6.528 0 2.112-1.984 3.584-5.952 6.528l-8.32 6.08-36.096 26.368-9.344 6.784c-5.44 3.968-8.192 5.952-10.496 4.736-2.368-1.152-2.368-4.48-2.368-11.328v-12.8z" fill="#333333" p-id="7669"></path></svg>