<?xml version="1.0" standalone="no"?><!DOCTYPE svg PUBLIC "-//W3C//DTD SVG 1.1//EN" "http://www.w3.org/Graphics/SVG/1.1/DTD/svg11.dtd"><svg t="1768495495262" class="icon" viewBox="0 0 1024 1024" version="1.1" xmlns="http://www.w3.org/2000/svg" p-id="5596" width="30" height="30" xmlns:xlink="http://www.w3.org/1999/xlink"><path d="M727.371294 562.145882v-62.674823h-194.469647v102.4h158.810353a34.183529 34.183529 0 0 0 35.538824-39.695059z m0-188.084706a37.586824 37.586824 0 0 0-14.637176-31.35247 43.821176 43.821176 0 0 0-23.100236-8.342588h-156.611764v98.213647h196.427294l-2.078118-58.518589z m-457.788235 192.210824a36.773647 36.773647 0 0 0 12.528941 27.105882 38.038588 38.038588 0 0 0 22.979765 8.372706h162.996706v-102.4H269.583059v66.921412z m0 0" fill="#384AAC" p-id="5597"></path><path d="M512 0a510.945882 510.945882 0 1 0 512 509.921882A512.843294 512.843294 0 0 0 512 0z m303.013647 800.406588h-252.988235a95.021176 95.021176 0 0 1-71.04753-25.088 82.100706 82.100706 0 0 1-22.979764-58.518588V662.588235h-162.876236a97.912471 97.912471 0 0 1-56.410353-12.528941 85.112471 85.112471 0 0 1-39.695058-77.312v-215.401412a79.088941 79.088941 0 0 1 25.088-58.518588 83.696941 83.696941 0 0 1 60.566588-25.057882h177.694117V223.593412h62.704942V273.769412h162.996706a99.689412 99.689412 0 0 1 66.861176 22.979764 77.221647 77.221647 0 0 1 29.244235 60.596706v217.328942a82.552471 82.552471 0 0 1-81.498353 89.871058h-179.772235v45.989647c0 18.793412 14.637176 29.244235 43.881412 29.244236h238.230588v60.596706z m0 0" fill="#384AAC" p-id="5598"></path><path d="M282.112 346.895059a29.093647 29.093647 0 0 0-10.450824 22.979765v64.783058h198.53553v-98.213647h-156.611765c-14.637176 0-27.105882 2.078118-31.35247 10.450824z m0 0" fill="#384AAC" p-id="5599"></path></svg>